<svg width="40" height="40" viewBox="0 0 40 40" fill="none" xmlns="http://www.w3.org/2000/svg">
<path fill-rule="evenodd" clip-rule="evenodd" d="M12.2912 14.8382C11.9029 14.5857 11.9029 14.0172 12.2912 13.7649L19.4613 9.10342C19.6735 8.96553 19.9469 8.96553 20.1591 9.10342L27.3294 13.7649C27.7177 14.0172 27.7177 14.5857 27.3294 14.8382L20.1591 19.4997C19.9469 19.6376 19.6735 19.6376 19.4613 19.4997L12.2912 14.8382Z" fill="#326CE5"/>
<path fill-rule="evenodd" clip-rule="evenodd" d="M20.9424 15.6608H21.4397C21.7302 15.6608 21.9119 15.3464 21.7665 15.0949L20.137 12.2723C19.9918 12.0209 19.6287 12.0209 19.4834 12.2723L17.8538 15.0949C17.7087 15.3464 17.8901 15.6608 18.1806 15.6608H18.6782C18.8865 15.6608 19.0554 15.8298 19.0554 16.0382V19.2599L19.3892 19.477C19.6452 19.6435 19.9752 19.6435 20.2311 19.477L20.565 19.2599V16.0382C20.565 15.8298 20.7338 15.6608 20.9424 15.6608Z" fill="#C1D2F7"/>
<path fill-rule="evenodd" clip-rule="evenodd" d="M22.2944 21.8898L20.5649 20.7655V21.2983C21.1293 21.5399 21.7097 21.7282 22.2944 21.8898Z" fill="#326CE5"/>
<path fill-rule="evenodd" clip-rule="evenodd" d="M20.5649 22.2562V23.0042C21.1364 23.1786 21.7146 23.3218 22.2869 23.4629C24.156 23.9238 25.9213 24.3588 27.3408 25.7785C27.4129 25.8505 27.4806 25.9239 27.5476 25.9975C27.6932 25.7194 27.6202 25.3522 27.329 25.1631L24.5206 23.337C23.8388 23.112 23.1442 22.9399 22.4577 22.7709C21.8103 22.6112 21.1771 22.452 20.5649 22.2562Z" fill="#326CE5"/>
<path fill-rule="evenodd" clip-rule="evenodd" d="M19.0554 21.6428C18.8132 21.5177 18.5745 21.3834 18.3442 21.228L17.7019 21.6456C18.135 21.964 18.5886 22.2223 19.0554 22.4388V21.6428Z" fill="#326CE5"/>
<path fill-rule="evenodd" clip-rule="evenodd" d="M21.2047 24.0237C20.9899 23.9707 20.7767 23.918 20.5649 23.864V24.5992C20.7216 24.6384 20.8781 24.6775 21.0339 24.7159C22.903 25.1766 24.6683 25.6116 26.088 27.0313C26.0903 27.0339 26.0925 27.0362 26.095 27.0388L26.7021 26.6439C26.6652 26.6053 26.6304 26.5656 26.592 26.5273C25.032 24.9672 23.0861 24.4875 21.2047 24.0237Z" fill="#326CE5"/>
<path fill-rule="evenodd" clip-rule="evenodd" d="M19.0554 23.4264C18.2432 23.1483 17.4735 22.7903 16.7712 22.2505L16.1423 22.6595C17.0365 23.397 18.0321 23.8444 19.0554 24.1761V23.4264Z" fill="#326CE5"/>
<path fill-rule="evenodd" clip-rule="evenodd" d="M19.0556 25.0508C17.6577 24.6845 16.343 24.2371 15.2197 23.2593L14.6016 23.6612C15.9207 24.8767 17.4901 25.3847 19.0556 25.7871V25.0508Z" fill="#326CE5"/>
<path fill-rule="evenodd" clip-rule="evenodd" d="M20.5649 26.1654C22.0273 26.543 23.4025 26.9944 24.5673 28.0318L25.1821 27.6323C23.821 26.3528 22.1879 25.842 20.5649 25.4296V26.1654Z" fill="#326CE5"/>
<path fill-rule="evenodd" clip-rule="evenodd" d="M13.6882 24.2549L13.0781 24.6515C13.0995 24.6735 13.1189 24.6963 13.1409 24.7181C14.7011 26.2783 16.6465 26.7579 18.5282 27.2218C20.1577 27.6233 21.7081 28.0062 23.0196 29.0383L23.645 28.6316C22.1674 27.3876 20.4072 26.9507 18.6989 26.5297C16.8487 26.0736 15.1004 25.6409 13.6882 24.2549Z" fill="#326CE5"/>
<path fill-rule="evenodd" clip-rule="evenodd" d="M12.392 25.4671C12.3209 25.396 12.2541 25.3236 12.1879 25.2509C11.9098 25.5294 11.9424 26.0097 12.2912 26.2364L14.4026 27.6092C15.3371 27.9959 16.3143 28.2378 17.2753 28.4747C18.7755 28.8444 20.2086 29.199 21.4503 30.0586L22.0888 29.6432C20.677 28.5819 19.0389 28.1752 17.4458 27.7825C15.577 27.3218 13.8117 26.8868 12.392 25.4671Z" fill="#326CE5"/>
<path fill-rule="evenodd" clip-rule="evenodd" d="M19.2624 30.7684C19.4031 30.8368 19.542 30.9087 19.6786 30.986C19.8415 31.0203 20.0146 30.9919 20.1594 30.8978L20.5137 30.6675C19.3753 29.9061 18.1097 29.5204 16.8484 29.1991L19.2624 30.7684Z" fill="#326CE5"/>
</svg>
